PathFileType	4	(X/Y/Z)	./resultDataOpenSim/trcMotMarkerGrf/sub06/qtm-02-05.trc
DataRate	CameraRate	NumFrames	NumMarkers	Units	OrigDataRate	OrigDataStartFrame	OrigNumFrames
250.000000	250.000000	12	24	m	250.000000	243	484
Frame#	Time	L.Toe.Tip			R.Toe.Tip			L.Ankle.Lat			R.Ankle.Lat			L.Ankle.Med			R.Ankle.Med			L.Heel			R.Heel			L.Knee.Lat			R.Knee.Lat			L.Knee.Med			R.Knee.Med			L.Thigh.Upper			R.Thigh.Upper			L.ASIS			R.ASIS			V.Sacral			L.Acromium			R.Acromium			C7			L.Elbow			R.Elbow			L.Wrist.Lat			R.Wrist.Lat
		X1	Y1	Z1	X2	Y2	Z2	X3	Y3	Z3	X4	Y4	Z4	X5	Y5	Z5	X6	Y6	Z6	X7	Y7	Z7	X8	Y8	Z8	X9	Y9	Z9	X10	Y10	Z10	X11	Y11	Z11	X12	Y12	Z12	X13	Y13	Z13	X14	Y14	Z14	X15	Y15	Z15	X16	Y16	Z16	X17	Y17	Z17	X18	Y18	Z18	X19	Y19	Z19	X20	Y20	Z20	X21	Y21	Z21	X22	Y22	Z22	X23	Y23	Z23	X24	Y24	Z24

243	0.968	0.038519779	0.0092885332	-0.050132403	0.66843246	0.12561507	0.12384131	-0.077884225	0.062441762	-0.070786604	0.53420049	0.094146215	0.13481205	-0.070176479	0.078105578	0.01568234	0.55052238	0.12947103	0.051595441	-0.15324651	0.04941617	-0.021288481	0.50163589	0.055454317	0.067259578	0.069079137	0.40504264	-0.095153551	0.40342439	0.46151625	0.15015769	0.057955237	0.40919596	0.02555191	0.3942081	0.43834235	0.019459537	0.15865585	0.7798425	-0.16428432	0.20259158	0.77511924	0.18148499	0.24712569	0.82305942	-0.12886567	0.28079075	0.82986113	0.11602919	0.077580763	0.89963223	0.022195999	0.22395369	1.310962	-0.1786575	0.19458344	1.2969126	0.18273647	0.13546662	1.3427064	-0.0055523338	0.24716913	0.98812713	-0.25405759	0.04730235	1.0175273	0.23176946	0.48144968	0.90751911	-0.21098023	0.11240486	0.79042464	0.28413987
244	0.972	0.038538208	0.0092558616	-0.050159979	0.6797725	0.1279273	0.12319673	-0.077198934	0.063177759	-0.071175762	0.54586563	0.094916932	0.13475107	-0.069514812	0.078789394	0.01531888	0.56174235	0.12998135	0.051217907	-0.15276289	0.050949944	-0.021844568	0.51368339	0.055177015	0.067446302	0.073262865	0.40445917	-0.095337941	0.41008721	0.4595096	0.14955758	0.062130673	0.40839561	0.02551525	0.40088534	0.4361562	0.018184722	0.16390924	0.77876172	-0.16397414	0.21034531	0.77332355	0.18135711	0.25293848	0.82182064	-0.1291996	0.28828032	0.82855671	0.11580686	0.084409477	0.89844497	0.023219534	0.230195	1.3095601	-0.17841394	0.20087148	1.2954845	0.18315291	0.14175048	1.3415268	-0.0051447972	0.2549139	0.9867367	-0.25418567	0.053709651	1.0160793	0.23197061	0.48990396	0.90822668	-0.20960391	0.11741951	0.78884649	0.28458729
245	0.976	0.038562594	0.0092193113	-0.050169195	0.69041559	0.12988304	0.12253205	-0.076427596	0.063961533	-0.071551092	0.55673466	0.095565088	0.13454512	-0.068817804	0.079552399	0.014982332	0.57235207	0.13030315	0.050734955	-0.15223078	0.052608226	-0.022370412	0.52503472	0.054791611	0.067418787	0.077409204	0.40386886	-0.095461331	0.41697759	0.45774173	0.14884081	0.066539404	0.40757818	0.025436868	0.40755578	0.43420168	0.016970511	0.1692327	0.77765581	-0.1636709	0.21859439	0.77173293	0.18146858	0.25881614	0.82060243	-0.12948835	0.29580741	0.82729241	0.11558496	0.091421305	0.89721176	0.024274219	0.23644387	1.3081651	-0.17814639	0.20718685	1.2940761	0.1835982	0.1480882	1.3403532	-0.0047371325	0.26255405	0.9853615	-0.25425821	0.060186607	1.0146142	0.23219595	0.49829418	0.90887177	-0.20823771	0.1226698	0.78727078	0.28509636
246	0.98	0.038593121	0.0091868278	-0.050167113	0.7003939	0.13139987	0.12186354	-0.075592769	0.06481546	-0.071904695	0.5668217	0.096027269	0.13416126	-0.068061421	0.080395433	0.014664213	0.58232475	0.13041306	0.050101122	-0.15163166	0.054371856	-0.02284133	0.53568992	0.054286204	0.067145305	0.081594937	0.40328664	-0.095552762	0.42417855	0.45624184	0.14805159	0.071156203	0.4067756	0.025305467	0.41426503	0.43251685	0.015845116	0.17463462	0.77655367	-0.16334531	0.22722169	0.77032761	0.18175273	0.26478645	0.81945102	-0.12971046	0.30336868	0.82607693	0.11535161	0.099024802	0.89580409	0.025205442	0.24270738	1.306785	-0.17785009	0.21350902	1.2926974	0.18406323	0.15459393	1.3391528	-0.0044677297	0.27014153	0.98397371	-0.25417599	0.066736781	1.0131428	0.23245056	0.50661366	0.90945801	-0.20687466	0.12813005	0.78571815	0.28566315
247	0.984	0.038632365	0.0091674091	-0.050158709	0.7097406	0.13241981	0.12119448	-0.074707172	0.065750991	-0.072235056	0.57617979	0.096235414	0.13357246	-0.067223876	0.081310357	0.014357161	0.59166402	0.13028743	0.049292181	-0.15095979	0.056236451	-0.023254131	0.54564875	0.053640679	0.066617398	0.085878481	0.40272588	-0.095642726	0.43167057	0.45500183	0.14722226	0.075938885	0.40599427	0.025138044	0.42101895	0.43111072	0.014818736	0.18012324	0.77547864	-0.16300004	0.2358772	0.76900437	0.18200661	0.27084852	0.81836593	-0.12991328	0.31096775	0.82491288	0.11509393	0.10726157	0.89415742	0.026050568	0.24898975	1.3054245	-0.1775162	0.21982723	1.2913567	0.18454555	0.16126842	1.3379208	-0.0043305406	0.27771283	0.98257775	-0.253927	0.07335929	1.0116769	0.23273349	0.51485211	0.90997925	-0.2055127	0.13373748	0.78419181	0.28626398
248	0.988	0.03868235	0.0091656283	-0.050146725	0.71848489	0.13291824	0.12050128	-0.073770577	0.066772448	-0.072550352	0.58487447	0.096131113	0.13276699	-0.066291053	0.082289401	0.01405551	0.60038778	0.12990446	0.04831016	-0.15021049	0.058202541	-0.023619127	0.55491346	0.052830554	0.065842839	0.090263999	0.40219666	-0.095754829	0.43936007	0.45398571	0.14637327	0.08084968	0.40523252	0.024951105	0.42777854	0.4299558	0.013885332	0.18570333	0.77444515	-0.1626529	0.24439795	0.7677182	0.18214576	0.27697708	0.81733658	-0.13013331	0.31861033	0.82379555	0.11480333	0.11562774	0.89238902	0.027002105	0.25529658	1.3040878	-0.17713838	0.22616017	1.2900597	0.18505417	0.16796662	1.3366978	-0.0041391312	0.28529845	0.9811961	-0.25353626	0.080053142	1.0102244	0.23304224	0.5229998	0.91041987	-0.20416152	0.13947525	0.78268505	0.28688303
249	0.992	0.038741957	0.0091780483	-0.050135242	0.72664485	0.13289973	0.11972103	-0.072779059	0.067882853	-0.072861324	0.59295736	0.09567541	0.13175189	-0.065264065	0.083339355	0.013758232	0.6084962	0.1292416	0.047159653	-0.14938019	0.060271079	-0.023956104	0.56347851	0.051839913	0.064838785	0.094734118	0.40170509	-0.095903813	0.44714107	0.4531373	0.14552767	0.085877066	0.40449976	0.02475277	0.43451008	0.42901308	0.013042135	0.19137571	0.77345786	-0.16231675	0.2528709	0.76650715	0.18224349	0.28311542	0.81636266	-0.13034992	0.32630209	0.82271668	0.11447759	0.12357786	0.89075481	0.028077137	0.26163269	1.3027832	-0.17672463	0.23254192	1.2888071	0.18559978	0.17454071	1.3355364	-0.0037111136	0.29293331	0.9798571	-0.25303122	0.086820035	1.0087899	0.23337602	0.53105354	0.91076792	-0.20283367	0.14539618	0.78119407	0.28751493
250	0.996	0.038808601	0.0091953337	-0.050128633	0.7342238	0.13238678	0.11875418	-0.071729077	0.06908764	-0.073173843	0.60046331	0.094846853	0.13055102	-0.064153176	0.084487958	0.013475451	0.61596043	0.12827199	0.045836455	-0.14846911	0.062454447	-0.024285177	0.57132287	0.050661519	0.063636742	0.099281797	0.40125061	-0.096091614	0.45493292	0.45238625	0.14470761	0.091034861	0.40381617	0.02454727	0.44121155	0.42824682	0.012290112	0.19714218	0.77251161	-0.161988	0.26139992	0.76542007	0.1823844	0.28918663	0.81545452	-0.13050952	0.33405013	0.82166915	0.1141173	0.13096623	0.88944762	0.029096268	0.2680015	1.3015206	-0.17629105	0.23899302	1.2875975	0.18618264	0.18098372	1.334458	-0.0030430927	0.300661	0.97859018	-0.25243158	0.093660856	1.0073845	0.23372775	0.5390188	0.91102381	-0.20153196	0.15156488	0.77972367	0.28817
251	1	0.038883099	0.0092092121	-0.050126917	0.74121939	0.13140169	0.11750488	-0.070614977	0.070391016	-0.073491752	0.60742623	0.093635745	0.12919809	-0.062963641	0.085761754	0.013211114	0.62275161	0.12697691	0.04434879	-0.14747926	0.064776852	-0.024613463	0.57842192	0.049287655	0.062295683	0.10392165	0.40083092	-0.096310807	0.46268412	0.45166166	0.14391835	0.096342407	0.40319729	0.024331304	0.44789664	0.42762521	0.011626798	0.20300589	0.77159854	-0.16165639	0.26995326	0.76446788	0.18256421	0.29516265	0.81462105	-0.13059569	0.34186055	0.82065521	0.11372207	0.13793895	0.88847154	0.029980343	0.27440957	1.3003092	-0.1758409	0.24551119	1.2864339	0.18679383	0.1874088	1.3334446	-0.0022740945	0.30852267	0.97742132	-0.251753	0.10057323	1.0060238	0.23408962	0.54690157	0.91119284	-0.20025034	0.15796743	0.77828836	0.28887734
252	1.004	0.038972246	0.0092176534	-0.050124954	0.74763725	0.12995081	0.11593534	-0.069428002	0.071789755	-0.073826259	0.61389157	0.09204857	0.12773011	-0.061699169	0.08715155	0.012928993	0.62888851	0.12537049	0.042745527	-0.146409	0.067250861	-0.024943787	0.58476734	0.04770955	0.060903851	0.10868125	0.40044333	-0.096550584	0.47036554	0.45091312	0.14314859	0.10181323	0.40264249	0.024093029	0.45457693	0.42712506	0.011050174	0.20896671	0.7707164	-0.16131561	0.27842638	0.76363557	0.18273012	0.30113578	0.81385291	-0.13067243	0.34973013	0.8196847	0.11328892	0.14473824	0.88770282	0.030794346	0.28086417	1.2991578	-0.17536136	0.25208857	1.2853251	0.18742884	0.19391853	1.3324716	-0.0015273937	0.31652101	0.97636061	-0.2510148	0.10755698	1.0047151	0.23446563	0.55470004	0.91127773	-0.1989841	0.16451813	0.7769081	0.28965495
253	1.008	0.039085084	0.0092250614	-0.050119178	0.75349496	0.12803452	0.11406489	-0.068161822	0.073277816	-0.074193217	0.61990362	0.090115637	0.12618502	-0.060368971	0.088621308	0.012569691	0.63443513	0.12349413	0.041106486	-0.14524268	0.069866094	-0.02530868	0.59036941	0.045923325	0.059553718	0.11358676	0.40007666	-0.09679892	0.47796746	0.45012377	0.1423841	0.10745105	0.40213582	0.023826712	0.46126589	0.42673327	0.010563529	0.2150242	0.76986481	-0.16096142	0.28678301	0.76292055	0.18287021	0.30725472	0.81312968	-0.13082594	0.35764976	0.81876564	0.11281733	0.15163219	0.88700857	0.031582387	0.28736854	1.2980745	-0.17483923	0.25872685	1.2842807	0.18809202	0.20053311	1.3315335	-0.00082639796	0.3245708	0.97538438	-0.25024437	0.1146156	1.0034593	0.2348625	0.56240761	0.91128296	-0.1977348	0.17114064	0.77559743	0.29046487
254	1.012	0.039225527	0.0092392795	-0.050116161	0.7588205	0.12567117	0.11191941	-0.066813825	0.074852746	-0.074597862	0.6254768	0.087891238	0.12460337	-0.058963922	0.090152483	0.012109164	0.63943941	0.12137242	0.039506836	-0.14395451	0.072604564	-0.02577027	0.59524571	0.043933804	0.05830869	0.11866235	0.39971479	-0.097049456	0.48549269	0.44930144	0.14160948	0.11324544	0.40164513	0.023556928	0.46798318	0.42643948	0.010171364	0.22118407	0.76904127	-0.16059475	0.29506704	0.76233844	0.18301305	0.31358024	0.81244157	-0.13107356	0.36561711	0.81790543	0.11231582	0.1588054	0.8863071	0.032339494	0.29392414	1.2970649	-0.17427091	0.26543188	1.2833049	0.18878611	0.20722487	1.3306379	-0.00013171214	0.33250836	0.97443958	-0.24946888	0.12174773	1.0022607	0.23527524	0.57002079	0.91121719	-0.19650678	0.17780329	0.77435975	0.29123471
